{
	"asset":	{
		"version":	"2.0",
		"generator":	"exported by Modelo"
	},
	"scene":	0,
	"scenes":	[{
			"nodes":	[0]
		}],
	"materials":	[{
			"pbrMetallicRoughness":	{
				"baseColorFactor":	[0.66274511814117432, 0.66274511814117432, 0.66274511814117432, 1],
				"metallicFactor":	0,
				"roughnessFactor":	1
			},
			"name":	"[0132_LightGray]",
			"doubleSided":	true
		}, {
			"pbrMetallicRoughness":	{
				"baseColorFactor":	[0.0980392172932625, 0.0980392172932625, 0.43921568989753723, 1],
				"metallicFactor":	0,
				"roughnessFactor":	1
			},
			"name":	"[0107_MidnightBlue]",
			"doubleSided":	true
		}, {
			"pbrMetallicRoughness":	{
				"baseColorFactor":	[0.39215686917305, 0.58431375026702881, 0.929411768913269, 0.49803921580314636],
				"metallicFactor":	0,
				"roughnessFactor":	1
			},
			"name":	"[Translucent Glass Blue]",
			"doubleSided":	true,
			"alphaMode":	"BLEND"
		}, {
			"pbrMetallicRoughness":	{
				"baseColorFactor":	[0, 0, 0, 1],
				"metallicFactor":	0,
				"roughnessFactor":	1
			},
			"name":	"mxdefaultline",
			"doubleSided":	true
		}],
	"meshes":	[{
			"primitives":	[{
					"attributes":	{
						"POSITION":	1,
						"NORMAL":	2
					},
					"indices":	0,
					"material":	2
				}]
		}, {
			"primitives":	[{
					"attributes":	{
						"POSITION":	4,
						"NORMAL":	5
					},
					"indices":	3,
					"material":	0
				}]
		}, {
			"primitives":	[{
					"attributes":	{
						"POSITION":	7,
						"NORMAL":	8
					},
					"indices":	6,
					"material":	1
				}]
		}],
	"accessors":	[{
			"bufferView":	0,
			"byteOffset":	0,
			"componentType":	5125,
			"count":	54,
			"type":	"SCALAR",
			"name":	"accessorIndices_0",
			"max":	[35],
			"min":	[0]
		}, {
			"bufferView":	1,
			"byteOffset":	0,
			"componentType":	5126,
			"count":	36,
			"type":	"VEC3",
			"name":	"accessorPositions",
			"max":	[4.47039794921875, 3.1749987602233887, 2.5653989315032959],
			"min":	[0, 0, 0.025399990379810333]
		}, {
			"bufferView":	2,
			"byteOffset":	0,
			"componentType":	5126,
			"count":	36,
			"type":	"VEC3",
			"name":	"accessorNormals",
			"max":	[1, 0, 1],
			"min":	[-1, 0, 0]
		}, {
			"bufferView":	0,
			"byteOffset":	216,
			"componentType":	5125,
			"count":	42,
			"type":	"SCALAR",
			"name":	"accessorIndices_3",
			"max":	[25],
			"min":	[0]
		}, {
			"bufferView":	1,
			"byteOffset":	432,
			"componentType":	5126,
			"count":	26,
			"type":	"VEC3",
			"name":	"accessorPositions",
			"max":	[4.47039794921875, 3.1749987602233887, 0.025399990379810333],
			"min":	[0, 0, 0]
		}, {
			"bufferView":	2,
			"byteOffset":	432,
			"componentType":	5126,
			"count":	26,
			"type":	"VEC3",
			"name":	"accessorNormals",
			"max":	[1, 1, 1],
			"min":	[-1, -1, -1]
		}, {
			"bufferView":	0,
			"byteOffset":	384,
			"componentType":	5125,
			"count":	6,
			"type":	"SCALAR",
			"name":	"accessorIndices_6",
			"max":	[3],
			"min":	[0]
		}, {
			"bufferView":	1,
			"byteOffset":	744,
			"componentType":	5126,
			"count":	4,
			"type":	"VEC3",
			"name":	"accessorPositions",
			"max":	[4.47039794921875, 3.1749987602233887, 0.025399990379810333],
			"min":	[2.235198974609375, 0, 0.025399990379810333]
		}, {
			"bufferView":	2,
			"byteOffset":	744,
			"componentType":	5126,
			"count":	4,
			"type":	"VEC3",
			"name":	"accessorNormals",
			"max":	[0, 0, 1],
			"min":	[0, 0, 1]
		}],
	"nodes":	[{
			"children":	[1, 2, 3],
			"matrix":	[1, 0, 0, 0, 0, 0, -1, 0, 0, 1, 0, 0, 0, 0, 0, 1]
		}, {
			"mesh":	0
		}, {
			"mesh":	1
		}, {
			"mesh":	2
		}],
	"bufferViews":	[{
			"buffer":	0,
			"byteOffset":	0,
			"byteLength":	408,
			"name":	"bufferViewIndex"
		}, {
			"buffer":	0,
			"byteOffset":	408,
			"byteLength":	792,
			"byteStride":	12,
			"name":	"bufferViewPosition"
		}, {
			"buffer":	0,
			"byteOffset":	1200,
			"byteLength":	792,
			"byteStride":	12,
			"name":	"bufferViewNormal"
		}],
	"buffers":	[{
			"byteLength":	1992,
			"uri":	"1800443.bin"
		}]
}