{"scene":0,"asset":{"generator":"ImageToStl.com","version":"2.0"},"scenes":[{"name":"Scene","nodes":[0]}],"nodes":[{"name":"Node0","children":[1,2,3,4,5,6,7,8,9,10,11,12,13,14,15,16]},{"name":"Node1","mesh":0},{"name":"Node2","mesh":1},{"name":"Node3","mesh":2},{"name":"Node4","mesh":3},{"name":"Node5","mesh":4},{"name":"Node6","mesh":5},{"name":"Node7","mesh":6},{"name":"Node8","mesh":7},{"name":"Node9","mesh":8},{"name":"Node10","mesh":9},{"name":"Node11","mesh":10},{"name":"Node12","mesh":11},{"name":"Node13","mesh":12},{"name":"Node14","mesh":13},{"name":"Node15","mesh":14},{"name":"Node16","mesh":15}],"materials":[{"name":"#A9A9A9FF","pbrMetallicRoughness":{"baseColorFactor":[0.6627451,0.6627451,0.6627451,1.0],"metallicFactor":0.0,"roughnessFactor":1.0},"doubleSided":true},{"name":"#191970FF","pbrMetallicRoughness":{"baseColorFactor":[0.09803922,0.09803922,0.4392157,1.0],"metallicFactor":0.0,"roughnessFactor":1.0},"doubleSided":true},{"name":"#6495ED80","pbrMetallicRoughness":{"baseColorFactor":[0.39215687,0.58431375,0.92941177,0.5019608],"metallicFactor":0.0,"roughnessFactor":1.0},"alphaMode":"BLEND","doubleSided":true}],"meshes":[{"name":"Mesh0","primitives":[{"indices":1,"material":0,"attributes":{"POSITION":0}}]},{"name":"Mesh0","primitives":[{"indices":3,"material":0,"attributes":{"POSITION":2}}]},{"name":"Mesh0","primitives":[{"indices":5,"material":0,"attributes":{"POSITION":4}}]},{"name":"Mesh0","primitives":[{"indices":7,"material":1,"attributes":{"POSITION":6}}]},{"name":"Mesh0","primitives":[{"indices":9,"material":0,"attributes":{"POSITION":8}}]},{"name":"Mesh0","primitives":[{"indices":11,"material":0,"attributes":{"POSITION":10}}]},{"name":"Mesh0","primitives":[{"indices":13,"material":0,"attributes":{"POSITION":12}}]},{"name":"Mesh0","primitives":[{"indices":15,"material":2,"attributes":{"POSITION":14}}]},{"name":"Mesh0","primitives":[{"indices":17,"material":2,"attributes":{"POSITION":16}}]},{"name":"Mesh0","primitives":[{"indices":19,"material":2,"attributes":{"POSITION":18}}]},{"name":"Mesh0","primitives":[{"indices":21,"material":2,"attributes":{"POSITION":20}}]},{"name":"Mesh0","primitives":[{"indices":23,"material":2,"attributes":{"POSITION":22}}]},{"name":"Mesh0","primitives":[{"indices":25,"material":2,"attributes":{"POSITION":24}}]},{"name":"Mesh0","primitives":[{"indices":27,"material":2,"attributes":{"POSITION":26}}]},{"name":"Mesh0","primitives":[{"indices":29,"material":2,"attributes":{"POSITION":28}}]},{"name":"Mesh0","primitives":[{"indices":31,"material":2,"attributes":{"POSITION":30}}]}],"accessors":[{"bufferView":0,"componentType":5126,"count":4,"type":"VEC3","min":[0.0,0.0,0.0],"max":[176.0,125.0,0.0]},{"bufferView":1,"componentType":5123,"count":6,"type":"SCALAR"},{"bufferView":2,"componentType":5126,"count":4,"type":"VEC3","min":[176.0,0.0,0.0],"max":[176.0,125.0,1.0]},{"bufferView":3,"componentType":5123,"count":6,"type":"SCALAR"},{"bufferView":4,"componentType":5126,"count":5,"type":"VEC3","min":[0.0,125.0,0.0],"max":[176.0,125.0,1.0]},{"bufferView":5,"componentType":5123,"count":9,"type":"SCALAR"},{"bufferView":6,"componentType":5126,"count":4,"type":"VEC3","min":[88.0,0.0,1.0],"max":[176.0,125.0,1.0]},{"bufferView":7,"componentType":5123,"count":6,"type":"SCALAR"},{"bufferView":8,"componentType":5126,"count":5,"type":"VEC3","min":[0.0,0.0,0.0],"max":[176.0,0.0,1.0]},{"bufferView":9,"componentType":5123,"count":9,"type":"SCALAR"},{"bufferView":10,"componentType":5126,"count":4,"type":"VEC3","min":[0.0,0.0,0.0],"max":[0.0,125.0,1.0]},{"bufferView":11,"componentType":5123,"count":6,"type":"SCALAR"},{"bufferView":12,"componentType":5126,"count":4,"type":"VEC3","min":[0.0,0.0,1.0],"max":[88.0,125.0,1.0]},{"bufferView":13,"componentType":5123,"count":6,"type":"SCALAR"},{"bufferView":14,"componentType":5126,"count":4,"type":"VEC3","min":[133.0,0.0,82.8],"max":[151.2,125.0,101.0]},{"bufferView":15,"componentType":5123,"count":6,"type":"SCALAR"},{"bufferView":16,"componentType":5126,"count":4,"type":"VEC3","min":[151.2,0.0,63.0],"max":[166.4,125.0,82.8]},{"bufferView":17,"componentType":5123,"count":6,"type":"SCALAR"},{"bufferView":18,"componentType":5126,"count":4,"type":"VEC3","min":[166.4,0.0,48.0],"max":[176.0,125.0,63.0]},{"bufferView":19,"componentType":5123,"count":6,"type":"SCALAR"},{"bufferView":20,"componentType":5126,"count":4,"type":"VEC3","min":[176.0,0.0,1.0],"max":[176.0,125.0,48.0]},{"bufferView":21,"componentType":5123,"count":6,"type":"SCALAR"},{"bufferView":22,"componentType":5126,"count":4,"type":"VEC3","min":[43.0,0.0,101.0],"max":[133.0,125.0,101.0]},{"bufferView":23,"componentType":5123,"count":6,"type":"SCALAR"},{"bufferView":24,"componentType":5126,"count":4,"type":"VEC3","min":[24.8,0.0,82.8],"max":[43.0,125.0,101.0]},{"bufferView":25,"componentType":5123,"count":6,"type":"SCALAR"},{"bufferView":26,"componentType":5126,"count":4,"type":"VEC3","min":[9.6,0.0,63.0],"max":[24.8,125.0,82.8]},{"bufferView":27,"componentType":5123,"count":6,"type":"SCALAR"},{"bufferView":28,"componentType":5126,"count":4,"type":"VEC3","min":[1.7763568E-15,0.0,48.0],"max":[9.6,125.0,63.0]},{"bufferView":29,"componentType":5123,"count":6,"type":"SCALAR"},{"bufferView":30,"componentType":5126,"count":4,"type":"VEC3","min":[0.0,0.0,1.0],"max":[1.7763568E-15,125.0,48.0]},{"bufferView":31,"componentType":5123,"count":6,"type":"SCALAR"}],"bufferViews":[{"target":34962,"buffer":0,"byteLength":48,"byteOffset":0},{"target":34963,"buffer":0,"byteLength":12,"byteOffset":48},{"target":34962,"buffer":0,"byteLength":48,"byteOffset":60},{"target":34963,"buffer":0,"byteLength":12,"byteOffset":108},{"target":34962,"buffer":0,"byteLength":60,"byteOffset":120},{"target":34963,"buffer":0,"byteLength":18,"byteOffset":180},{"target":34962,"buffer":0,"byteLength":48,"byteOffset":200},{"target":34963,"buffer":0,"byteLength":12,"byteOffset":248},{"target":34962,"buffer":0,"byteLength":60,"byteOffset":260},{"target":34963,"buffer":0,"byteLength":18,"byteOffset":320},{"target":34962,"buffer":0,"byteLength":48,"byteOffset":340},{"target":34963,"buffer":0,"byteLength":12,"byteOffset":388},{"target":34962,"buffer":0,"byteLength":48,"byteOffset":400},{"target":34963,"buffer":0,"byteLength":12,"byteOffset":448},{"target":34962,"buffer":0,"byteLength":48,"byteOffset":460},{"target":34963,"buffer":0,"byteLength":12,"byteOffset":508},{"target":34962,"buffer":0,"byteLength":48,"byteOffset":520},{"target":34963,"buffer":0,"byteLength":12,"byteOffset":568},{"target":34962,"buffer":0,"byteLength":48,"byteOffset":580},{"target":34963,"buffer":0,"byteLength":12,"byteOffset":628},{"target":34962,"buffer":0,"byteLength":48,"byteOffset":640},{"target":34963,"buffer":0,"byteLength":12,"byteOffset":688},{"target":34962,"buffer":0,"byteLength":48,"byteOffset":700},{"target":34963,"buffer":0,"byteLength":12,"byteOffset":748},{"target":34962,"buffer":0,"byteLength":48,"byteOffset":760},{"target":34963,"buffer":0,"byteLength":12,"byteOffset":808},{"target":34962,"buffer":0,"byteLength":48,"byteOffset":820},{"target":34963,"buffer":0,"byteLength":12,"byteOffset":868},{"target":34962,"buffer":0,"byteLength":48,"byteOffset":880},{"target":34963,"buffer":0,"byteLength":12,"byteOffset":928},{"target":34962,"buffer":0,"byteLength":48,"byteOffset":940},{"target":34963,"buffer":0,"byteLength":12,"byteOffset":988}],"buffers":[{"byteLength":1000,"uri":"data:application/octet-stream;base64,"}]}