{
	"asset":	{
		"version":	"2.0",
		"generator":	"exported by Modelo"
	},
	"scene":	0,
	"scenes":	[{
			"nodes":	[0]
		}],
	"materials":	[{
			"pbrMetallicRoughness":	{
				"baseColorFactor":	[0.66274511814117432, 0.66274511814117432, 0.66274511814117432, 1],
				"metallicFactor":	0,
				"roughnessFactor":	1
			},
			"name":	"#A9A9A9FF",
			"doubleSided":	true
		}, {
			"pbrMetallicRoughness":	{
				"baseColorFactor":	[0.0980392172932625, 0.0980392172932625, 0.43921568989753723, 1],
				"metallicFactor":	0,
				"roughnessFactor":	1
			},
			"name":	"#191970FF",
			"doubleSided":	true
		}, {
			"pbrMetallicRoughness":	{
				"baseColorFactor":	[0.39215686917305, 0.58431375026702881, 0.929411768913269, 0.501960813999176],
				"metallicFactor":	0,
				"roughnessFactor":	1
			},
			"name":	"#6495ED80",
			"doubleSided":	true,
			"alphaMode":	"BLEND"
		}],
	"meshes":	[{
			"primitives":	[{
					"attributes":	{
						"POSITION":	1
					},
					"indices":	0,
					"material":	0
				}]
		}, {
			"primitives":	[{
					"attributes":	{
						"POSITION":	3
					},
					"indices":	2,
					"material":	0
				}]
		}, {
			"primitives":	[{
					"attributes":	{
						"POSITION":	5
					},
					"indices":	4,
					"material":	0
				}]
		}, {
			"primitives":	[{
					"attributes":	{
						"POSITION":	7
					},
					"indices":	6,
					"material":	0
				}]
		}, {
			"primitives":	[{
					"attributes":	{
						"POSITION":	9
					},
					"indices":	8,
					"material":	0
				}]
		}, {
			"primitives":	[{
					"attributes":	{
						"POSITION":	11
					},
					"indices":	10,
					"material":	0
				}]
		}, {
			"primitives":	[{
					"attributes":	{
						"POSITION":	13
					},
					"indices":	12,
					"material":	0
				}]
		}, {
			"primitives":	[{
					"attributes":	{
						"POSITION":	15
					},
					"indices":	14,
					"material":	0
				}]
		}, {
			"primitives":	[{
					"attributes":	{
						"POSITION":	17
					},
					"indices":	16,
					"material":	0
				}]
		}, {
			"primitives":	[{
					"attributes":	{
						"POSITION":	19
					},
					"indices":	18,
					"material":	0
				}]
		}, {
			"primitives":	[{
					"attributes":	{
						"POSITION":	21
					},
					"indices":	20,
					"material":	0
				}]
		}, {
			"primitives":	[{
					"attributes":	{
						"POSITION":	23
					},
					"indices":	22,
					"material":	1
				}]
		}, {
			"primitives":	[{
					"attributes":	{
						"POSITION":	25
					},
					"indices":	24,
					"material":	1
				}]
		}, {
			"primitives":	[{
					"attributes":	{
						"POSITION":	27
					},
					"indices":	26,
					"material":	2
				}]
		}, {
			"primitives":	[{
					"attributes":	{
						"POSITION":	29
					},
					"indices":	28,
					"material":	2
				}]
		}, {
			"primitives":	[{
					"attributes":	{
						"POSITION":	31
					},
					"indices":	30,
					"material":	2
				}]
		}, {
			"primitives":	[{
					"attributes":	{
						"POSITION":	33
					},
					"indices":	32,
					"material":	2
				}]
		}, {
			"primitives":	[{
					"attributes":	{
						"POSITION":	35
					},
					"indices":	34,
					"material":	2
				}]
		}, {
			"primitives":	[{
					"attributes":	{
						"POSITION":	37
					},
					"indices":	36,
					"material":	2
				}]
		}, {
			"primitives":	[{
					"attributes":	{
						"POSITION":	39
					},
					"indices":	38,
					"material":	2
				}]
		}, {
			"primitives":	[{
					"attributes":	{
						"POSITION":	41
					},
					"indices":	40,
					"material":	2
				}]
		}, {
			"primitives":	[{
					"attributes":	{
						"POSITION":	43
					},
					"indices":	42,
					"material":	2
				}]
		}, {
			"primitives":	[{
					"attributes":	{
						"POSITION":	45
					},
					"indices":	44,
					"material":	2
				}]
		}, {
			"primitives":	[{
					"attributes":	{
						"POSITION":	47
					},
					"indices":	46,
					"material":	2
				}]
		}, {
			"primitives":	[{
					"attributes":	{
						"POSITION":	49
					},
					"indices":	48,
					"material":	2
				}]
		}, {
			"primitives":	[{
					"attributes":	{
						"POSITION":	51
					},
					"indices":	50,
					"material":	2
				}]
		}, {
			"primitives":	[{
					"attributes":	{
						"POSITION":	53
					},
					"indices":	52,
					"material":	2
				}]
		}, {
			"primitives":	[{
					"attributes":	{
						"POSITION":	55
					},
					"indices":	54,
					"material":	2
				}]
		}, {
			"primitives":	[{
					"attributes":	{
						"POSITION":	57
					},
					"indices":	56,
					"material":	2
				}]
		}, {
			"primitives":	[{
					"attributes":	{
						"POSITION":	59
					},
					"indices":	58,
					"material":	2
				}]
		}, {
			"primitives":	[{
					"attributes":	{
						"POSITION":	61
					},
					"indices":	60,
					"material":	2
				}]
		}],
	"accessors":	[{
			"bufferView":	0,
			"byteOffset":	0,
			"componentType":	5125,
			"count":	9,
			"type":	"SCALAR",
			"name":	"accessorIndices_0",
			"max":	[4],
			"min":	[0]
		}, {
			"bufferView":	1,
			"byteOffset":	0,
			"componentType":	5126,
			"count":	5,
			"type":	"VEC3",
			"name":	"accessorPositions",
			"max":	[53.644802093505859, 0.30480000376701355, 1.8663618258391085e-17],
			"min":	[0, 0, 0]
		}, {
			"bufferView":	0,
			"byteOffset":	36,
			"componentType":	5125,
			"count":	9,
			"type":	"SCALAR",
			"name":	"accessorIndices_2",
			"max":	[4],
			"min":	[0]
		}, {
			"bufferView":	1,
			"byteOffset":	60,
			"componentType":	5126,
			"count":	5,
			"type":	"VEC3",
			"name":	"accessorPositions",
			"max":	[53.644802093505859, 0.30480000376701355, -76.2000045776367],
			"min":	[0, 4.6659042833563629e-15, -76.2000045776367]
		}, {
			"bufferView":	0,
			"byteOffset":	72,
			"componentType":	5125,
			"count":	9,
			"type":	"SCALAR",
			"name":	"accessorIndices_4",
			"max":	[4],
			"min":	[0]
		}, {
			"bufferView":	1,
			"byteOffset":	120,
			"componentType":	5126,
			"count":	5,
			"type":	"VEC3",
			"name":	"accessorPositions",
			"max":	[53.644802093505859, 0.30480000376701355, -38.100002288818359],
			"min":	[0, 2.3329521416781815e-15, -38.100002288818359]
		}, {
			"bufferView":	0,
			"byteOffset":	108,
			"componentType":	5125,
			"count":	6,
			"type":	"SCALAR",
			"name":	"accessorIndices_6",
			"max":	[3],
			"min":	[0]
		}, {
			"bufferView":	1,
			"byteOffset":	180,
			"componentType":	5126,
			"count":	4,
			"type":	"VEC3",
			"name":	"accessorPositions",
			"max":	[53.644802093505859, 2.3329521416781815e-15, 0],
			"min":	[0, 0, -38.100002288818359]
		}, {
			"bufferView":	0,
			"byteOffset":	132,
			"componentType":	5125,
			"count":	6,
			"type":	"SCALAR",
			"name":	"accessorIndices_8",
			"max":	[3],
			"min":	[0]
		}, {
			"bufferView":	1,
			"byteOffset":	228,
			"componentType":	5126,
			"count":	4,
			"type":	"VEC3",
			"name":	"accessorPositions",
			"max":	[53.644802093505859, 0.30480000376701355, 1.8663618258391085e-17],
			"min":	[53.644802093505859, 0, -38.100002288818359]
		}, {
			"bufferView":	0,
			"byteOffset":	156,
			"componentType":	5125,
			"count":	6,
			"type":	"SCALAR",
			"name":	"accessorIndices_10",
			"max":	[3],
			"min":	[0]
		}, {
			"bufferView":	1,
			"byteOffset":	276,
			"componentType":	5126,
			"count":	4,
			"type":	"VEC3",
			"name":	"accessorPositions",
			"max":	[0, 0.30480000376701355, 1.8663618258391085e-17],
			"min":	[0, 0, -38.100002288818359]
		}, {
			"bufferView":	0,
			"byteOffset":	180,
			"componentType":	5125,
			"count":	6,
			"type":	"SCALAR",
			"name":	"accessorIndices_12",
			"max":	[3],
			"min":	[0]
		}, {
			"bufferView":	1,
			"byteOffset":	324,
			"componentType":	5126,
			"count":	4,
			"type":	"VEC3",
			"name":	"accessorPositions",
			"max":	[26.82240104675293, 0.30480000376701355, 1.8663618258391085e-17],
			"min":	[0, 0.30480000376701355, -38.100002288818359]
		}, {
			"bufferView":	0,
			"byteOffset":	204,
			"componentType":	5125,
			"count":	6,
			"type":	"SCALAR",
			"name":	"accessorIndices_14",
			"max":	[3],
			"min":	[0]
		}, {
			"bufferView":	1,
			"byteOffset":	372,
			"componentType":	5126,
			"count":	4,
			"type":	"VEC3",
			"name":	"accessorPositions",
			"max":	[53.644802093505859, 0.30480000376701355, -38.100002288818359],
			"min":	[26.82240104675293, 0.30480000376701355, -76.2000045776367]
		}, {
			"bufferView":	0,
			"byteOffset":	228,
			"componentType":	5125,
			"count":	6,
			"type":	"SCALAR",
			"name":	"accessorIndices_16",
			"max":	[3],
			"min":	[0]
		}, {
			"bufferView":	1,
			"byteOffset":	420,
			"componentType":	5126,
			"count":	4,
			"type":	"VEC3",
			"name":	"accessorPositions",
			"max":	[53.644802093505859, 4.6659042833563629e-15, -38.100002288818359],
			"min":	[0, 2.3329521416781815e-15, -76.2000045776367]
		}, {
			"bufferView":	0,
			"byteOffset":	252,
			"componentType":	5125,
			"count":	6,
			"type":	"SCALAR",
			"name":	"accessorIndices_18",
			"max":	[3],
			"min":	[0]
		}, {
			"bufferView":	1,
			"byteOffset":	468,
			"componentType":	5126,
			"count":	4,
			"type":	"VEC3",
			"name":	"accessorPositions",
			"max":	[53.644802093505859, 0.30480000376701355, -38.100002288818359],
			"min":	[53.644802093505859, 2.3329521416781815e-15, -76.2000045776367]
		}, {
			"bufferView":	0,
			"byteOffset":	276,
			"componentType":	5125,
			"count":	6,
			"type":	"SCALAR",
			"name":	"accessorIndices_20",
			"max":	[3],
			"min":	[0]
		}, {
			"bufferView":	1,
			"byteOffset":	516,
			"componentType":	5126,
			"count":	4,
			"type":	"VEC3",
			"name":	"accessorPositions",
			"max":	[0, 0.30480000376701355, -38.100002288818359],
			"min":	[0, 2.3329521416781815e-15, -76.2000045776367]
		}, {
			"bufferView":	0,
			"byteOffset":	300,
			"componentType":	5125,
			"count":	6,
			"type":	"SCALAR",
			"name":	"accessorIndices_22",
			"max":	[3],
			"min":	[0]
		}, {
			"bufferView":	1,
			"byteOffset":	564,
			"componentType":	5126,
			"count":	4,
			"type":	"VEC3",
			"name":	"accessorPositions",
			"max":	[53.644802093505859, 0.30480000376701355, 1.8663618258391085e-17],
			"min":	[26.82240104675293, 0.30480000376701355, -38.100002288818359]
		}, {
			"bufferView":	0,
			"byteOffset":	324,
			"componentType":	5125,
			"count":	6,
			"type":	"SCALAR",
			"name":	"accessorIndices_24",
			"max":	[3],
			"min":	[0]
		}, {
			"bufferView":	1,
			"byteOffset":	612,
			"componentType":	5126,
			"count":	4,
			"type":	"VEC3",
			"name":	"accessorPositions",
			"max":	[26.82240104675293, 0.30480000376701355, -38.100002288818359],
			"min":	[0, 0.30480000376701355, -76.2000045776367]
		}, {
			"bufferView":	0,
			"byteOffset":	348,
			"componentType":	5125,
			"count":	6,
			"type":	"SCALAR",
			"name":	"accessorIndices_26",
			"max":	[3],
			"min":	[0]
		}, {
			"bufferView":	1,
			"byteOffset":	660,
			"componentType":	5126,
			"count":	4,
			"type":	"VEC3",
			"name":	"accessorPositions",
			"max":	[46.085758209228516, 30.784799575805664, 1.8850252373023464e-15],
			"min":	[40.538398742675781, 25.237442016601563, -38.100002288818359]
		}, {
			"bufferView":	0,
			"byteOffset":	372,
			"componentType":	5125,
			"count":	6,
			"type":	"SCALAR",
			"name":	"accessorIndices_28",
			"max":	[3],
			"min":	[0]
		}, {
			"bufferView":	1,
			"byteOffset":	708,
			"componentType":	5126,
			"count":	4,
			"type":	"VEC3",
			"name":	"accessorPositions",
			"max":	[50.718719482421875, 25.237442016601563, 1.5453476612779533e-15],
			"min":	[46.085758209228516, 19.202400207519531, -38.100002288818359]
		}, {
			"bufferView":	0,
			"byteOffset":	396,
			"componentType":	5125,
			"count":	6,
			"type":	"SCALAR",
			"name":	"accessorIndices_30",
			"max":	[3],
			"min":	[0]
		}, {
			"bufferView":	1,
			"byteOffset":	756,
			"componentType":	5126,
			"count":	4,
			"type":	"VEC3",
			"name":	"accessorPositions",
			"max":	[53.644802093505859, 19.202400207519531, 1.17580793869811e-15],
			"min":	[50.718719482421875, 14.630399703979492, -38.100002288818359]
		}, {
			"bufferView":	0,
			"byteOffset":	420,
			"componentType":	5125,
			"count":	6,
			"type":	"SCALAR",
			"name":	"accessorIndices_32",
			"max":	[3],
			"min":	[0]
		}, {
			"bufferView":	1,
			"byteOffset":	804,
			"componentType":	5126,
			"count":	4,
			"type":	"VEC3",
			"name":	"accessorPositions",
			"max":	[53.644802093505859, 14.630399703979492, 8.95853596993433e-16],
			"min":	[53.644802093505859, 0.30480000376701355, -38.100002288818359]
		}, {
			"bufferView":	0,
			"byteOffset":	444,
			"componentType":	5125,
			"count":	6,
			"type":	"SCALAR",
			"name":	"accessorIndices_34",
			"max":	[3],
			"min":	[0]
		}, {
			"bufferView":	1,
			"byteOffset":	852,
			"componentType":	5126,
			"count":	4,
			"type":	"VEC3",
			"name":	"accessorPositions",
			"max":	[40.538398742675781, 30.784799575805664, 1.8850252373023464e-15],
			"min":	[13.106400489807129, 30.784799575805664, -38.100002288818359]
		}, {
			"bufferView":	0,
			"byteOffset":	468,
			"componentType":	5125,
			"count":	6,
			"type":	"SCALAR",
			"name":	"accessorIndices_36",
			"max":	[3],
			"min":	[0]
		}, {
			"bufferView":	1,
			"byteOffset":	900,
			"componentType":	5126,
			"count":	4,
			"type":	"VEC3",
			"name":	"accessorPositions",
			"max":	[13.106400489807129, 30.784799575805664, 1.8850252373023464e-15],
			"min":	[7.5590400695800781, 25.237442016601563, -38.100002288818359]
		}, {
			"bufferView":	0,
			"byteOffset":	492,
			"componentType":	5125,
			"count":	6,
			"type":	"SCALAR",
			"name":	"accessorIndices_38",
			"max":	[3],
			"min":	[0]
		}, {
			"bufferView":	1,
			"byteOffset":	948,
			"componentType":	5126,
			"count":	4,
			"type":	"VEC3",
			"name":	"accessorPositions",
			"max":	[7.5590400695800781, 25.237442016601563, 1.5453476612779533e-15],
			"min":	[2.9260802268981934, 19.202400207519531, -38.100002288818359]
		}, {
			"bufferView":	0,
			"byteOffset":	516,
			"componentType":	5125,
			"count":	6,
			"type":	"SCALAR",
			"name":	"accessorIndices_40",
			"max":	[3],
			"min":	[0]
		}, {
			"bufferView":	1,
			"byteOffset":	996,
			"componentType":	5126,
			"count":	4,
			"type":	"VEC3",
			"name":	"accessorPositions",
			"max":	[2.9260802268981934, 19.202400207519531, 1.17580793869811e-15],
			"min":	[5.4143357134075662e-16, 14.630399703979492, -38.100002288818359]
		}, {
			"bufferView":	0,
			"byteOffset":	540,
			"componentType":	5125,
			"count":	6,
			"type":	"SCALAR",
			"name":	"accessorIndices_42",
			"max":	[3],
			"min":	[0]
		}, {
			"bufferView":	1,
			"byteOffset":	1044,
			"componentType":	5126,
			"count":	4,
			"type":	"VEC3",
			"name":	"accessorPositions",
			"max":	[5.4143357134075662e-16, 14.630399703979492, 8.95853596993433e-16],
			"min":	[0, 0.30480000376701355, -38.100002288818359]
		}, {
			"bufferView":	0,
			"byteOffset":	564,
			"componentType":	5125,
			"count":	6,
			"type":	"SCALAR",
			"name":	"accessorIndices_44",
			"max":	[3],
			"min":	[0]
		}, {
			"bufferView":	1,
			"byteOffset":	1092,
			"componentType":	5126,
			"count":	4,
			"type":	"VEC3",
			"name":	"accessorPositions",
			"max":	[2.9260802268981934, 19.202400207519531, -38.100002288818359],
			"min":	[5.4143357134075662e-16, 14.630399703979492, -76.2000045776367]
		}, {
			"bufferView":	0,
			"byteOffset":	588,
			"componentType":	5125,
			"count":	6,
			"type":	"SCALAR",
			"name":	"accessorIndices_46",
			"max":	[3],
			"min":	[0]
		}, {
			"bufferView":	1,
			"byteOffset":	1140,
			"componentType":	5126,
			"count":	4,
			"type":	"VEC3",
			"name":	"accessorPositions",
			"max":	[7.5590400695800781, 25.237442016601563, -38.100002288818359],
			"min":	[2.9260802268981934, 19.202400207519531, -76.2000045776367]
		}, {
			"bufferView":	0,
			"byteOffset":	612,
			"componentType":	5125,
			"count":	6,
			"type":	"SCALAR",
			"name":	"accessorIndices_48",
			"max":	[3],
			"min":	[0]
		}, {
			"bufferView":	1,
			"byteOffset":	1188,
			"componentType":	5126,
			"count":	4,
			"type":	"VEC3",
			"name":	"accessorPositions",
			"max":	[13.106400489807129, 30.784799575805664, -38.100002288818359],
			"min":	[7.5590400695800781, 25.237442016601563, -76.2000045776367]
		}, {
			"bufferView":	0,
			"byteOffset":	636,
			"componentType":	5125,
			"count":	6,
			"type":	"SCALAR",
			"name":	"accessorIndices_50",
			"max":	[3],
			"min":	[0]
		}, {
			"bufferView":	1,
			"byteOffset":	1236,
			"componentType":	5126,
			"count":	4,
			"type":	"VEC3",
			"name":	"accessorPositions",
			"max":	[5.4143357134075662e-16, 14.630399703979492, -38.100002288818359],
			"min":	[0, 0.30480000376701355, -76.2000045776367]
		}, {
			"bufferView":	0,
			"byteOffset":	660,
			"componentType":	5125,
			"count":	6,
			"type":	"SCALAR",
			"name":	"accessorIndices_52",
			"max":	[3],
			"min":	[0]
		}, {
			"bufferView":	1,
			"byteOffset":	1284,
			"componentType":	5126,
			"count":	4,
			"type":	"VEC3",
			"name":	"accessorPositions",
			"max":	[53.644802093505859, 19.202400207519531, -38.100002288818359],
			"min":	[50.718719482421875, 14.630399703979492, -76.2000045776367]
		}, {
			"bufferView":	0,
			"byteOffset":	684,
			"componentType":	5125,
			"count":	6,
			"type":	"SCALAR",
			"name":	"accessorIndices_54",
			"max":	[3],
			"min":	[0]
		}, {
			"bufferView":	1,
			"byteOffset":	1332,
			"componentType":	5126,
			"count":	4,
			"type":	"VEC3",
			"name":	"accessorPositions",
			"max":	[40.538398742675781, 30.784799575805664, -38.100002288818359],
			"min":	[13.106400489807129, 30.784799575805664, -76.2000045776367]
		}, {
			"bufferView":	0,
			"byteOffset":	708,
			"componentType":	5125,
			"count":	6,
			"type":	"SCALAR",
			"name":	"accessorIndices_56",
			"max":	[3],
			"min":	[0]
		}, {
			"bufferView":	1,
			"byteOffset":	1380,
			"componentType":	5126,
			"count":	4,
			"type":	"VEC3",
			"name":	"accessorPositions",
			"max":	[53.644802093505859, 14.630399703979492, -38.100002288818359],
			"min":	[53.644802093505859, 0.30480000376701355, -76.2000045776367]
		}, {
			"bufferView":	0,
			"byteOffset":	732,
			"componentType":	5125,
			"count":	6,
			"type":	"SCALAR",
			"name":	"accessorIndices_58",
			"max":	[3],
			"min":	[0]
		}, {
			"bufferView":	1,
			"byteOffset":	1428,
			"componentType":	5126,
			"count":	4,
			"type":	"VEC3",
			"name":	"accessorPositions",
			"max":	[46.085758209228516, 30.784799575805664, -38.100002288818359],
			"min":	[40.538398742675781, 25.237442016601563, -76.2000045776367]
		}, {
			"bufferView":	0,
			"byteOffset":	756,
			"componentType":	5125,
			"count":	6,
			"type":	"SCALAR",
			"name":	"accessorIndices_60",
			"max":	[3],
			"min":	[0]
		}, {
			"bufferView":	1,
			"byteOffset":	1476,
			"componentType":	5126,
			"count":	4,
			"type":	"VEC3",
			"name":	"accessorPositions",
			"max":	[50.718719482421875, 25.237442016601563, -38.100002288818359],
			"min":	[46.085758209228516, 19.202400207519531, -76.2000045776367]
		}],
	"nodes":	[{
			"children":	[1, 2, 3, 4, 5, 6, 7, 8, 9, 10, 11, 12, 13, 14, 15, 16, 17, 18, 19, 20, 21, 22, 23, 24, 25, 26, 27, 28, 29, 30, 31],
			"matrix":	[1, 0, 0, 0, 0, 0, -1, 0, 0, 1, 0, 0, 0, 0, 0, 1]
		}, {
			"mesh":	3,
			"matrix":	[1, 0, 0, 0, 0, 0, 1, 0, 0, -1, 0, 0, 0, 0, 0, 1]
		}, {
			"mesh":	4,
			"matrix":	[1, 0, 0, 0, 0, 0, 1, 0, 0, -1, 0, 0, 0, 0, 0, 1]
		}, {
			"mesh":	11,
			"matrix":	[1, 0, 0, 0, 0, 0, 1, 0, 0, -1, 0, 0, 0, 0, 0, 1]
		}, {
			"mesh":	0,
			"matrix":	[1, 0, 0, 0, 0, 0, 1, 0, 0, -1, 0, 0, 0, 0, 0, 1]
		}, {
			"mesh":	5,
			"matrix":	[1, 0, 0, 0, 0, 0, 1, 0, 0, -1, 0, 0, 0, 0, 0, 1]
		}, {
			"mesh":	6,
			"matrix":	[1, 0, 0, 0, 0, 0, 1, 0, 0, -1, 0, 0, 0, 0, 0, 1]
		}, {
			"mesh":	13,
			"matrix":	[1, 0, 0, 0, 0, 0, 1, 0, 0, -1, 0, 0, 0, 0, 0, 1]
		}, {
			"mesh":	14,
			"matrix":	[1, 0, 0, 0, 0, 0, 1, 0, 0, -1, 0, 0, 0, 0, 0, 1]
		}, {
			"mesh":	15,
			"matrix":	[1, 0, 0, 0, 0, 0, 1, 0, 0, -1, 0, 0, 0, 0, 0, 1]
		}, {
			"mesh":	16,
			"matrix":	[1, 0, 0, 0, 0, 0, 1, 0, 0, -1, 0, 0, 0, 0, 0, 1]
		}, {
			"mesh":	17,
			"matrix":	[1, 0, 0, 0, 0, 0, 1, 0, 0, -1, 0, 0, 0, 0, 0, 1]
		}, {
			"mesh":	18,
			"matrix":	[1, 0, 0, 0, 0, 0, 1, 0, 0, -1, 0, 0, 0, 0, 0, 1]
		}, {
			"mesh":	19,
			"matrix":	[1, 0, 0, 0, 0, 0, 1, 0, 0, -1, 0, 0, 0, 0, 0, 1]
		}, {
			"mesh":	20,
			"matrix":	[1, 0, 0, 0, 0, 0, 1, 0, 0, -1, 0, 0, 0, 0, 0, 1]
		}, {
			"mesh":	21,
			"matrix":	[1, 0, 0, 0, 0, 0, 1, 0, 0, -1, 0, 0, 0, 0, 0, 1]
		}, {
			"mesh":	22,
			"matrix":	[1, 0, 0, 0, 0, 0, 1, 0, 0, -1, 0, 0, 0, 0, 0, 1]
		}, {
			"mesh":	1,
			"matrix":	[1, 0, 0, 0, 0, 0, 1, 0, 0, -1, 0, 0, 0, 0, 0, 1]
		}, {
			"mesh":	7,
			"matrix":	[1, 0, 0, 0, 0, 0, 1, 0, 0, -1, 0, 0, 0, 0, 0, 1]
		}, {
			"mesh":	23,
			"matrix":	[1, 0, 0, 0, 0, 0, 1, 0, 0, -1, 0, 0, 0, 0, 0, 1]
		}, {
			"mesh":	8,
			"matrix":	[1, 0, 0, 0, 0, 0, 1, 0, 0, -1, 0, 0, 0, 0, 0, 1]
		}, {
			"mesh":	24,
			"matrix":	[1, 0, 0, 0, 0, 0, 1, 0, 0, -1, 0, 0, 0, 0, 0, 1]
		}, {
			"mesh":	12,
			"matrix":	[1, 0, 0, 0, 0, 0, 1, 0, 0, -1, 0, 0, 0, 0, 0, 1]
		}, {
			"mesh":	25,
			"matrix":	[1, 0, 0, 0, 0, 0, 1, 0, 0, -1, 0, 0, 0, 0, 0, 1]
		}, {
			"mesh":	9,
			"matrix":	[1, 0, 0, 0, 0, 0, 1, 0, 0, -1, 0, 0, 0, 0, 0, 1]
		}, {
			"mesh":	10,
			"matrix":	[1, 0, 0, 0, 0, 0, 1, 0, 0, -1, 0, 0, 0, 0, 0, 1]
		}, {
			"mesh":	2,
			"matrix":	[1, 0, 0, 0, 0, 0, 1, 0, 0, -1, 0, 0, 0, 0, 0, 1]
		}, {
			"mesh":	26,
			"matrix":	[1, 0, 0, 0, 0, 0, 1, 0, 0, -1, 0, 0, 0, 0, 0, 1]
		}, {
			"mesh":	27,
			"matrix":	[1, 0, 0, 0, 0, 0, 1, 0, 0, -1, 0, 0, 0, 0, 0, 1]
		}, {
			"mesh":	28,
			"matrix":	[1, 0, 0, 0, 0, 0, 1, 0, 0, -1, 0, 0, 0, 0, 0, 1]
		}, {
			"mesh":	29,
			"matrix":	[1, 0, 0, 0, 0, 0, 1, 0, 0, -1, 0, 0, 0, 0, 0, 1]
		}, {
			"mesh":	30,
			"matrix":	[1, 0, 0, 0, 0, 0, 1, 0, 0, -1, 0, 0, 0, 0, 0, 1]
		}],
	"bufferViews":	[{
			"buffer":	0,
			"byteOffset":	0,
			"byteLength":	780,
			"name":	"bufferViewIndex"
		}, {
			"buffer":	0,
			"byteOffset":	780,
			"byteLength":	1524,
			"byteStride":	12,
			"name":	"bufferViewPosition"
		}],
	"buffers":	[{
			"byteLength":	2304,
			"uri":	"1800447.bin"
		}]
}