{"scene":0,"asset":{"generator":"ImageToStl.com","version":"2.0"},"scenes":[{"name":"Scene","nodes":[0]}],"nodes":[{"name":"Node0","children":[1,2,3,4,5,6,7,8,9,10,11,12,13,14,15,16,17,18,19,20,21,22,23,24,25,26,27,28,29,30,31]},{"name":"Node1","mesh":0},{"name":"Node2","mesh":1},{"name":"Node3","mesh":2},{"name":"Node4","mesh":3},{"name":"Node5","mesh":4},{"name":"Node6","mesh":5},{"name":"Node7","mesh":6},{"name":"Node8","mesh":7},{"name":"Node9","mesh":8},{"name":"Node10","mesh":9},{"name":"Node11","mesh":10},{"name":"Node12","mesh":11},{"name":"Node13","mesh":12},{"name":"Node14","mesh":13},{"name":"Node15","mesh":14},{"name":"Node16","mesh":15},{"name":"Node17","mesh":16},{"name":"Node18","mesh":17},{"name":"Node19","mesh":18},{"name":"Node20","mesh":19},{"name":"Node21","mesh":20},{"name":"Node22","mesh":21},{"name":"Node23","mesh":22},{"name":"Node24","mesh":23},{"name":"Node25","mesh":24},{"name":"Node26","mesh":25},{"name":"Node27","mesh":26},{"name":"Node28","mesh":27},{"name":"Node29","mesh":28},{"name":"Node30","mesh":29},{"name":"Node31","mesh":30}],"materials":[{"name":"#A9A9A9FF","pbrMetallicRoughness":{"baseColorFactor":[0.6627451,0.6627451,0.6627451,1.0],"metallicFactor":0.0,"roughnessFactor":1.0},"doubleSided":true},{"name":"#191970FF","pbrMetallicRoughness":{"baseColorFactor":[0.09803922,0.09803922,0.4392157,1.0],"metallicFactor":0.0,"roughnessFactor":1.0},"doubleSided":true},{"name":"#6495ED80","pbrMetallicRoughness":{"baseColorFactor":[0.39215687,0.58431375,0.92941177,0.5019608],"metallicFactor":0.0,"roughnessFactor":1.0},"alphaMode":"BLEND","doubleSided":true}],"meshes":[{"name":"Mesh0","primitives":[{"indices":1,"material":0,"attributes":{"POSITION":0}}]},{"name":"Mesh0","primitives":[{"indices":3,"material":0,"attributes":{"POSITION":2}}]},{"name":"Mesh0","primitives":[{"indices":5,"material":1,"attributes":{"POSITION":4}}]},{"name":"Mesh0","primitives":[{"indices":7,"material":0,"attributes":{"POSITION":6}}]},{"name":"Mesh0","primitives":[{"indices":9,"material":0,"attributes":{"POSITION":8}}]},{"name":"Mesh0","primitives":[{"indices":11,"material":0,"attributes":{"POSITION":10}}]},{"name":"Mesh0","primitives":[{"indices":13,"material":2,"attributes":{"POSITION":12}}]},{"name":"Mesh0","primitives":[{"indices":15,"material":2,"attributes":{"POSITION":14}}]},{"name":"Mesh0","primitives":[{"indices":17,"material":2,"attributes":{"POSITION":16}}]},{"name":"Mesh0","primitives":[{"indices":19,"material":2,"attributes":{"POSITION":18}}]},{"name":"Mesh0","primitives":[{"indices":21,"material":2,"attributes":{"POSITION":20}}]},{"name":"Mesh0","primitives":[{"indices":23,"material":2,"attributes":{"POSITION":22}}]},{"name":"Mesh0","primitives":[{"indices":25,"material":2,"attributes":{"POSITION":24}}]},{"name":"Mesh0","primitives":[{"indices":27,"material":2,"attributes":{"POSITION":26}}]},{"name":"Mesh0","primitives":[{"indices":29,"material":2,"attributes":{"POSITION":28}}]},{"name":"Mesh0","primitives":[{"indices":31,"material":2,"attributes":{"POSITION":30}}]},{"name":"Mesh0","primitives":[{"indices":33,"material":0,"attributes":{"POSITION":32}}]},{"name":"Mesh0","primitives":[{"indices":35,"material":0,"attributes":{"POSITION":34}}]},{"name":"Mesh0","primitives":[{"indices":37,"material":2,"attributes":{"POSITION":36}}]},{"name":"Mesh0","primitives":[{"indices":39,"material":0,"attributes":{"POSITION":38}}]},{"name":"Mesh0","primitives":[{"indices":41,"material":2,"attributes":{"POSITION":40}}]},{"name":"Mesh0","primitives":[{"indices":43,"material":1,"attributes":{"POSITION":42}}]},{"name":"Mesh0","primitives":[{"indices":45,"material":2,"attributes":{"POSITION":44}}]},{"name":"Mesh0","primitives":[{"indices":47,"material":0,"attributes":{"POSITION":46}}]},{"name":"Mesh0","primitives":[{"indices":49,"material":0,"attributes":{"POSITION":48}}]},{"name":"Mesh0","primitives":[{"indices":51,"material":0,"attributes":{"POSITION":50}}]},{"name":"Mesh0","primitives":[{"indices":53,"material":2,"attributes":{"POSITION":52}}]},{"name":"Mesh0","primitives":[{"indices":55,"material":2,"attributes":{"POSITION":54}}]},{"name":"Mesh0","primitives":[{"indices":57,"material":2,"attributes":{"POSITION":56}}]},{"name":"Mesh0","primitives":[{"indices":59,"material":2,"attributes":{"POSITION":58}}]},{"name":"Mesh0","primitives":[{"indices":61,"material":2,"attributes":{"POSITION":60}}]}],"accessors":[{"bufferView":0,"componentType":5126,"count":4,"type":"VEC3","min":[0.0,0.0,0.0],"max":[176.0,125.0,0.0]},{"bufferView":1,"componentType":5123,"count":6,"type":"SCALAR"},{"bufferView":2,"componentType":5126,"count":4,"type":"VEC3","min":[176.0,0.0,0.0],"max":[176.0,125.0,1.0]},{"bufferView":3,"componentType":5123,"count":6,"type":"SCALAR"},{"bufferView":4,"componentType":5126,"count":4,"type":"VEC3","min":[88.0,0.0,1.0],"max":[176.0,125.0,1.0]},{"bufferView":5,"componentType":5123,"count":6,"type":"SCALAR"},{"bufferView":6,"componentType":5126,"count":5,"type":"VEC3","min":[0.0,0.0,0.0],"max":[176.0,0.0,1.0]},{"bufferView":7,"componentType":5123,"count":9,"type":"SCALAR"},{"bufferView":8,"componentType":5126,"count":4,"type":"VEC3","min":[0.0,0.0,0.0],"max":[0.0,125.0,1.0]},{"bufferView":9,"componentType":5123,"count":6,"type":"SCALAR"},{"bufferView":10,"componentType":5126,"count":4,"type":"VEC3","min":[0.0,0.0,1.0],"max":[88.0,125.0,1.0]},{"bufferView":11,"componentType":5123,"count":6,"type":"SCALAR"},{"bufferView":12,"componentType":5126,"count":4,"type":"VEC3","min":[133.0,0.0,82.8],"max":[151.2,125.0,101.0]},{"bufferView":13,"componentType":5123,"count":6,"type":"SCALAR"},{"bufferView":14,"componentType":5126,"count":4,"type":"VEC3","min":[151.2,0.0,63.0],"max":[166.4,125.0,82.8]},{"bufferView":15,"componentType":5123,"count":6,"type":"SCALAR"},{"bufferView":16,"componentType":5126,"count":4,"type":"VEC3","min":[166.4,0.0,48.0],"max":[176.0,125.0,63.0]},{"bufferView":17,"componentType":5123,"count":6,"type":"SCALAR"},{"bufferView":18,"componentType":5126,"count":4,"type":"VEC3","min":[176.0,0.0,1.0],"max":[176.0,125.0,48.0]},{"bufferView":19,"componentType":5123,"count":6,"type":"SCALAR"},{"bufferView":20,"componentType":5126,"count":4,"type":"VEC3","min":[43.0,0.0,101.0],"max":[133.0,125.0,101.0]},{"bufferView":21,"componentType":5123,"count":6,"type":"SCALAR"},{"bufferView":22,"componentType":5126,"count":4,"type":"VEC3","min":[24.8,0.0,82.8],"max":[43.0,125.0,101.0]},{"bufferView":23,"componentType":5123,"count":6,"type":"SCALAR"},{"bufferView":24,"componentType":5126,"count":4,"type":"VEC3","min":[9.6,0.0,63.0],"max":[24.8,125.0,82.8]},{"bufferView":25,"componentType":5123,"count":6,"type":"SCALAR"},{"bufferView":26,"componentType":5126,"count":4,"type":"VEC3","min":[1.7763568E-15,0.0,48.0],"max":[9.6,125.0,63.0]},{"bufferView":27,"componentType":5123,"count":6,"type":"SCALAR"},{"bufferView":28,"componentType":5126,"count":4,"type":"VEC3","min":[0.0,0.0,1.0],"max":[1.7763568E-15,125.0,48.0]},{"bufferView":29,"componentType":5123,"count":6,"type":"SCALAR"},{"bufferView":30,"componentType":5126,"count":4,"type":"VEC3","min":[1.7763568E-15,125.0,48.0],"max":[9.6,250.0,63.0]},{"bufferView":31,"componentType":5123,"count":6,"type":"SCALAR"},{"bufferView":32,"componentType":5126,"count":5,"type":"VEC3","min":[0.0,250.0,0.0],"max":[176.0,250.0,1.0]},{"bufferView":33,"componentType":5123,"count":9,"type":"SCALAR"},{"bufferView":34,"componentType":5126,"count":4,"type":"VEC3","min":[88.0,125.0,1.0],"max":[176.0,250.0,1.0]},{"bufferView":35,"componentType":5123,"count":6,"type":"SCALAR"},{"bufferView":36,"componentType":5126,"count":4,"type":"VEC3","min":[9.6,125.0,63.0],"max":[24.8,250.0,82.8]},{"bufferView":37,"componentType":5123,"count":6,"type":"SCALAR"},{"bufferView":38,"componentType":5126,"count":4,"type":"VEC3","min":[0.0,125.0,0.0],"max":[176.0,250.0,0.0]},{"bufferView":39,"componentType":5123,"count":6,"type":"SCALAR"},{"bufferView":40,"componentType":5126,"count":4,"type":"VEC3","min":[24.8,125.0,82.8],"max":[43.0,250.0,101.0]},{"bufferView":41,"componentType":5123,"count":6,"type":"SCALAR"},{"bufferView":42,"componentType":5126,"count":4,"type":"VEC3","min":[0.0,125.0,1.0],"max":[88.0,250.0,1.0]},{"bufferView":43,"componentType":5123,"count":6,"type":"SCALAR"},{"bufferView":44,"componentType":5126,"count":4,"type":"VEC3","min":[0.0,125.0,1.0],"max":[1.7763568E-15,250.0,48.0]},{"bufferView":45,"componentType":5123,"count":6,"type":"SCALAR"},{"bufferView":46,"componentType":5126,"count":4,"type":"VEC3","min":[176.0,125.0,0.0],"max":[176.0,250.0,1.0]},{"bufferView":47,"componentType":5123,"count":6,"type":"SCALAR"},{"bufferView":48,"componentType":5126,"count":4,"type":"VEC3","min":[0.0,125.0,0.0],"max":[0.0,250.0,1.0]},{"bufferView":49,"componentType":5123,"count":6,"type":"SCALAR"},{"bufferView":50,"componentType":5126,"count":5,"type":"VEC3","min":[0.0,125.0,0.0],"max":[176.0,125.0,1.0]},{"bufferView":51,"componentType":5123,"count":9,"type":"SCALAR"},{"bufferView":52,"componentType":5126,"count":4,"type":"VEC3","min":[166.4,125.0,48.0],"max":[176.0,250.0,63.0]},{"bufferView":53,"componentType":5123,"count":6,"type":"SCALAR"},{"bufferView":54,"componentType":5126,"count":4,"type":"VEC3","min":[43.0,125.0,101.0],"max":[133.0,250.0,101.0]},{"bufferView":55,"componentType":5123,"count":6,"type":"SCALAR"},{"bufferView":56,"componentType":5126,"count":4,"type":"VEC3","min":[176.0,125.0,1.0],"max":[176.0,250.0,48.0]},{"bufferView":57,"componentType":5123,"count":6,"type":"SCALAR"},{"bufferView":58,"componentType":5126,"count":4,"type":"VEC3","min":[133.0,125.0,82.8],"max":[151.2,250.0,101.0]},{"bufferView":59,"componentType":5123,"count":6,"type":"SCALAR"},{"bufferView":60,"componentType":5126,"count":4,"type":"VEC3","min":[151.2,125.0,63.0],"max":[166.4,250.0,82.8]},{"bufferView":61,"componentType":5123,"count":6,"type":"SCALAR"}],"bufferViews":[{"target":34962,"buffer":0,"byteLength":48,"byteOffset":0},{"target":34963,"buffer":0,"byteLength":12,"byteOffset":48},{"target":34962,"buffer":0,"byteLength":48,"byteOffset":60},{"target":34963,"buffer":0,"byteLength":12,"byteOffset":108},{"target":34962,"buffer":0,"byteLength":48,"byteOffset":120},{"target":34963,"buffer":0,"byteLength":12,"byteOffset":168},{"target":34962,"buffer":0,"byteLength":60,"byteOffset":180},{"target":34963,"buffer":0,"byteLength":18,"byteOffset":240},{"target":34962,"buffer":0,"byteLength":48,"byteOffset":260},{"target":34963,"buffer":0,"byteLength":12,"byteOffset":308},{"target":34962,"buffer":0,"byteLength":48,"byteOffset":320},{"target":34963,"buffer":0,"byteLength":12,"byteOffset":368},{"target":34962,"buffer":0,"byteLength":48,"byteOffset":380},{"target":34963,"buffer":0,"byteLength":12,"byteOffset":428},{"target":34962,"buffer":0,"byteLength":48,"byteOffset":440},{"target":34963,"buffer":0,"byteLength":12,"byteOffset":488},{"target":34962,"buffer":0,"byteLength":48,"byteOffset":500},{"target":34963,"buffer":0,"byteLength":12,"byteOffset":548},{"target":34962,"buffer":0,"byteLength":48,"byteOffset":560},{"target":34963,"buffer":0,"byteLength":12,"byteOffset":608},{"target":34962,"buffer":0,"byteLength":48,"byteOffset":620},{"target":34963,"buffer":0,"byteLength":12,"byteOffset":668},{"target":34962,"buffer":0,"byteLength":48,"byteOffset":680},{"target":34963,"buffer":0,"byteLength":12,"byteOffset":728},{"target":34962,"buffer":0,"byteLength":48,"byteOffset":740},{"target":34963,"buffer":0,"byteLength":12,"byteOffset":788},{"target":34962,"buffer":0,"byteLength":48,"byteOffset":800},{"target":34963,"buffer":0,"byteLength":12,"byteOffset":848},{"target":34962,"buffer":0,"byteLength":48,"byteOffset":860},{"target":34963,"buffer":0,"byteLength":12,"byteOffset":908},{"target":34962,"buffer":0,"byteLength":48,"byteOffset":920},{"target":34963,"buffer":0,"byteLength":12,"byteOffset":968},{"target":34962,"buffer":0,"byteLength":60,"byteOffset":980},{"target":34963,"buffer":0,"byteLength":18,"byteOffset":1040},{"target":34962,"buffer":0,"byteLength":48,"byteOffset":1060},{"target":34963,"buffer":0,"byteLength":12,"byteOffset":1108},{"target":34962,"buffer":0,"byteLength":48,"byteOffset":1120},{"target":34963,"buffer":0,"byteLength":12,"byteOffset":1168},{"target":34962,"buffer":0,"byteLength":48,"byteOffset":1180},{"target":34963,"buffer":0,"byteLength":12,"byteOffset":1228},{"target":34962,"buffer":0,"byteLength":48,"byteOffset":1240},{"target":34963,"buffer":0,"byteLength":12,"byteOffset":1288},{"target":34962,"buffer":0,"byteLength":48,"byteOffset":1300},{"target":34963,"buffer":0,"byteLength":12,"byteOffset":1348},{"target":34962,"buffer":0,"byteLength":48,"byteOffset":1360},{"target":34963,"buffer":0,"byteLength":12,"byteOffset":1408},{"target":34962,"buffer":0,"byteLength":48,"byteOffset":1420},{"target":34963,"buffer":0,"byteLength":12,"byteOffset":1468},{"target":34962,"buffer":0,"byteLength":48,"byteOffset":1480},{"target":34963,"buffer":0,"byteLength":12,"byteOffset":1528},{"target":34962,"buffer":0,"byteLength":60,"byteOffset":1540},{"target":34963,"buffer":0,"byteLength":18,"byteOffset":1600},{"target":34962,"buffer":0,"byteLength":48,"byteOffset":1620},{"target":34963,"buffer":0,"byteLength":12,"byteOffset":1668},{"target":34962,"buffer":0,"byteLength":48,"byteOffset":1680},{"target":34963,"buffer":0,"byteLength":12,"byteOffset":1728},{"target":34962,"buffer":0,"byteLength":48,"byteOffset":1740},{"target":34963,"buffer":0,"byteLength":12,"byteOffset":1788},{"target":34962,"buffer":0,"byteLength":48,"byteOffset":1800},{"target":34963,"buffer":0,"byteLength":12,"byteOffset":1848},{"target":34962,"buffer":0,"byteLength":48,"byteOffset":1860},{"target":34963,"buffer":0,"byteLength":12,"byteOffset":1908}],"buffers":[{"byteLength":1920,"uri":"data:application/octet-stream;base64,"}]}