{"scene":0,"asset":{"generator":"ImageToStl.com","version":"2.0"},"scenes":[{"name":"Scene","nodes":[0]}],"nodes":[{"name":"Node0","children":[1,2,3,4,5,6,7,8,9,10,11]},{"name":"Node1","mesh":0},{"name":"Node2","mesh":1},{"name":"Node3","mesh":2},{"name":"Node4","mesh":3},{"name":"Node5","mesh":4},{"name":"Node6","mesh":5},{"name":"Node7","mesh":6},{"name":"Node8","mesh":7},{"name":"Node9","mesh":8},{"name":"Node10","mesh":9},{"name":"Node11","mesh":10}],"materials":[{"name":"#515151FF","pbrMetallicRoughness":{"baseColorFactor":[0.31764707,0.31764707,0.31764707,1.0],"metallicFactor":0.0,"roughnessFactor":1.0},"doubleSided":true},{"name":"#A9A9A9FF","pbrMetallicRoughness":{"baseColorFactor":[0.6627451,0.6627451,0.6627451,1.0],"metallicFactor":0.0,"roughnessFactor":1.0},"doubleSided":true},{"name":"#6495ED80","pbrMetallicRoughness":{"baseColorFactor":[0.39215687,0.58431375,0.92941177,0.5019608],"metallicFactor":0.0,"roughnessFactor":1.0},"alphaMode":"BLEND","doubleSided":true},{"name":"#CCCCCCCC","pbrMetallicRoughness":{"baseColorFactor":[0.8,0.8,0.8,0.8],"metallicFactor":0.0,"roughnessFactor":1.0},"alphaMode":"BLEND","doubleSided":true}],"meshes":[{"name":"Mesh0","primitives":[{"indices":1,"material":0,"attributes":{"POSITION":0}}]},{"name":"Mesh0","primitives":[{"indices":3,"material":1,"attributes":{"POSITION":2}}]},{"name":"Mesh0","primitives":[{"indices":5,"material":1,"attributes":{"POSITION":4}}]},{"name":"Mesh0","primitives":[{"indices":7,"material":1,"attributes":{"POSITION":6}}]},{"name":"Mesh0","primitives":[{"indices":9,"material":0,"attributes":{"POSITION":8}}]},{"name":"Mesh0","primitives":[{"indices":11,"material":2,"attributes":{"POSITION":10}}]},{"name":"Mesh0","primitives":[{"indices":13,"material":2,"attributes":{"POSITION":12}}]},{"name":"Mesh0","primitives":[{"indices":15,"material":2,"attributes":{"POSITION":14}}]},{"name":"Mesh0","primitives":[{"indices":17,"material":2,"attributes":{"POSITION":16}}]},{"name":"Mesh0","primitives":[{"indices":19,"material":2,"attributes":{"POSITION":18}}]},{"name":"Mesh0","primitives":[{"indices":21,"material":3,"attributes":{"POSITION":20}}]}],"accessors":[{"bufferView":0,"componentType":5126,"count":4,"type":"VEC3","min":[0.0,0.0,0.0],"max":[0.0,96.0,1.0]},{"bufferView":1,"componentType":5123,"count":6,"type":"SCALAR"},{"bufferView":2,"componentType":5126,"count":4,"type":"VEC3","min":[0.0,0.0,0.0],"max":[125.0,0.0,1.0]},{"bufferView":3,"componentType":5123,"count":6,"type":"SCALAR"},{"bufferView":4,"componentType":5126,"count":4,"type":"VEC3","min":[0.0,0.0,1.0],"max":[125.0,96.0,1.0]},{"bufferView":5,"componentType":5123,"count":6,"type":"SCALAR"},{"bufferView":6,"componentType":5126,"count":4,"type":"VEC3","min":[0.0,0.0,0.0],"max":[125.0,96.0,0.0]},{"bufferView":7,"componentType":5123,"count":6,"type":"SCALAR"},{"bufferView":8,"componentType":5126,"count":4,"type":"VEC3","min":[125.0,0.0,0.0],"max":[125.0,96.0,1.0]},{"bufferView":9,"componentType":5123,"count":6,"type":"SCALAR"},{"bufferView":10,"componentType":5126,"count":4,"type":"VEC3","min":[-17.5,0.0,64.0],"max":[142.5,96.0,64.0]},{"bufferView":11,"componentType":5123,"count":6,"type":"SCALAR"},{"bufferView":12,"componentType":5126,"count":4,"type":"VEC3","min":[-17.5,0.0,22.0],"max":[-17.5,96.0,64.0]},{"bufferView":13,"componentType":5123,"count":6,"type":"SCALAR"},{"bufferView":14,"componentType":5126,"count":4,"type":"VEC3","min":[-17.5,0.0,0.0],"max":[0.0,96.0,22.0]},{"bufferView":15,"componentType":5123,"count":6,"type":"SCALAR"},{"bufferView":16,"componentType":5126,"count":4,"type":"VEC3","min":[142.5,0.0,22.0],"max":[142.5,96.0,64.0]},{"bufferView":17,"componentType":5123,"count":6,"type":"SCALAR"},{"bufferView":18,"componentType":5126,"count":4,"type":"VEC3","min":[125.0,0.0,0.0],"max":[142.5,96.0,22.0]},{"bufferView":19,"componentType":5123,"count":6,"type":"SCALAR"},{"bufferView":20,"componentType":5126,"count":4,"type":"VEC3","min":[0.0,96.0,0.0],"max":[125.0,96.0,1.0]},{"bufferView":21,"componentType":5123,"count":6,"type":"SCALAR"}],"bufferViews":[{"target":34962,"buffer":0,"byteLength":48,"byteOffset":0},{"target":34963,"buffer":0,"byteLength":12,"byteOffset":48},{"target":34962,"buffer":0,"byteLength":48,"byteOffset":60},{"target":34963,"buffer":0,"byteLength":12,"byteOffset":108},{"target":34962,"buffer":0,"byteLength":48,"byteOffset":120},{"target":34963,"buffer":0,"byteLength":12,"byteOffset":168},{"target":34962,"buffer":0,"byteLength":48,"byteOffset":180},{"target":34963,"buffer":0,"byteLength":12,"byteOffset":228},{"target":34962,"buffer":0,"byteLength":48,"byteOffset":240},{"target":34963,"buffer":0,"byteLength":12,"byteOffset":288},{"target":34962,"buffer":0,"byteLength":48,"byteOffset":300},{"target":34963,"buffer":0,"byteLength":12,"byteOffset":348},{"target":34962,"buffer":0,"byteLength":48,"byteOffset":360},{"target":34963,"buffer":0,"byteLength":12,"byteOffset":408},{"target":34962,"buffer":0,"byteLength":48,"byteOffset":420},{"target":34963,"buffer":0,"byteLength":12,"byteOffset":468},{"target":34962,"buffer":0,"byteLength":48,"byteOffset":480},{"target":34963,"buffer":0,"byteLength":12,"byteOffset":528},{"target":34962,"buffer":0,"byteLength":48,"byteOffset":540},{"target":34963,"buffer":0,"byteLength":12,"byteOffset":588},{"target":34962,"buffer":0,"byteLength":48,"byteOffset":600},{"target":34963,"buffer":0,"byteLength":12,"byteOffset":648}],"buffers":[{"byteLength":660,"uri":"data:application/octet-stream;base64,"}]}